<?xml version="1.0" encoding="UTF-8"?>
<svg version="1.1" xmlns="http://www.w3.org/2000/svg" width="256" height="256">
<path d="M0 0 C0.73945862 0.00370605 1.47891724 0.00741211 2.24078369 0.01123047 C33.46878645 0.23314085 60.13462808 10.69790121 84.25 30.4375 C85.0234375 31.06785156 85.796875 31.69820312 86.59375 32.34765625 C91.30164243 36.3222039 95.37270169 40.65467555 99.25 45.4375 C99.94996094 46.29988281 100.64992187 47.16226563 101.37109375 48.05078125 C116.86396816 67.89347482 128.21026266 92.72341657 128.48828125 118.23046875 C128.50310799 119.33948296 128.50310799 119.33948296 128.51823425 120.47090149 C128.92558226 158.84127463 119.20686655 190.21963526 92.62890625 219.0625 C71.44239159 240.21422564 40.85505513 256.34445266 10.45703125 256.67578125 C9.34801704 256.69060799 9.34801704 256.69060799 8.21659851 256.70573425 C-31.29642848 257.12521292 -63.54230133 246.53832016 -92.6484375 218.59765625 C-113.03091787 198.30936479 -127.67558133 167.46814938 -127.98828125 138.609375 C-127.9980751 137.86716202 -128.00786896 137.12494904 -128.01795959 136.36024475 C-128.33436703 106.19757882 -128.33436703 106.19757882 -123.75 92.4375 C-123.30988268 91.00000403 -122.86977893 89.5625039 -122.4296875 88.125 C-115.72920655 67.12875791 -103.70266032 49.61198176 -87.75 34.4375 C-87.0796875 33.78394531 -86.409375 33.13039062 -85.71875 32.45703125 C-62.5392429 10.5945416 -31.56141494 -0.28600382 0 0 Z " fill="#272625" transform="translate(127.75,-0.4375)"/>
<path d="M0 0 C1.00933594 0.67160156 2.01867187 1.34320313 3.05859375 2.03515625 C24.48497169 16.98310092 40.36883246 38.23413455 46 64 C46.22171875 64.90105469 46.4434375 65.80210938 46.671875 66.73046875 C48.00223746 72.52833217 48.22726196 78.0659378 48 84 C47.2575 83.67 46.515 83.34 45.75 83 C42.86116688 81.77217129 42.86116688 81.77217129 39 82 C38.98541748 82.92337158 38.97083496 83.84674316 38.95581055 84.7980957 C38.89473692 88.22577204 38.8205839 91.65264662 38.73754883 95.07983398 C38.70430577 96.56279854 38.67627177 98.04588944 38.65356445 99.52905273 C38.62000532 101.66184293 38.56769362 103.79347612 38.51171875 105.92578125 C38.48553467 107.20880127 38.45935059 108.49182129 38.43237305 109.8137207 C38 113 38 113 36.62817383 114.91870117 C34.29420075 116.46873368 32.73424571 116.42065319 30 116 C27.84250216 112.76375324 27.71639512 111.65605934 27.5859375 107.89453125 C27.54726562 106.91162109 27.50859375 105.92871094 27.46875 104.91601562 C27.42234375 103.37977539 27.42234375 103.37977539 27.375 101.8125 C27.33632812 100.77673828 27.29765625 99.74097656 27.2578125 98.67382812 C27.16351704 96.11606378 27.07791798 93.55830713 27 91 C23.70924004 91.37904208 23.70924004 91.37904208 21 93 C18.89868079 93.12602054 16.79256212 93.1757922 14.6875 93.1875 C13.53636719 93.20167969 12.38523438 93.21585937 11.19921875 93.23046875 C8.11214906 93.00807911 6.63541227 92.47187484 4 91 C3.01 91 2.02 91 1 91 C0.98598145 92.58868896 0.98598145 92.58868896 0.97167969 94.20947266 C0.93166151 98.15715851 0.8658709 102.10407471 0.79248047 106.05126953 C0.76433913 107.75624671 0.74309065 109.46135269 0.72900391 111.16650391 C0.70747863 113.62469089 0.660783 116.08134048 0.609375 118.5390625 C0.60814636 119.29555084 0.60691772 120.05203918 0.60565186 120.83145142 C0.46535454 125.95631606 -0.64069663 128.92151961 -4 133 C-7.52443312 134.76221656 -11.16201091 134.63525337 -15 134 C-18.14478596 131.88208292 -18.79665322 131.40755411 -20 128 C-21.10015147 119.30683879 -20.55790069 112.51481834 -16 105 C-11.53560673 95.51082938 -11.48022186 84.19681772 -14.97265625 74.36328125 C-20.24921574 62.22518813 -28.29841629 54.02048996 -40.5546875 48.875 C-50.02111126 45.48765348 -62.18262777 45.37106641 -71.5625 49.0625 C-82.94567287 54.66749245 -91.34630557 63.12393777 -96 75 C-96.68586802 78.15393618 -96.9986866 81.28528282 -97.25 84.5 C-97.32734375 85.32242188 -97.4046875 86.14484375 -97.484375 86.9921875 C-97.67054485 88.99351337 -97.83733295 90.99662687 -98 93 C-104.65077443 93.47317763 -108.66293713 93.40887802 -114 89 C-115.39013226 87.93005175 -116.7862701 86.86787279 -118.1875 85.8125 C-118.84105469 85.30332031 -119.49460938 84.79414062 -120.16796875 84.26953125 C-124.06858136 81.5665481 -128.41683526 81.27590934 -133 82 C-136.71781783 83.66834378 -139.86899329 86.03988098 -142.96484375 88.66796875 C-147.34157092 92.31668585 -150.17361771 93.65437621 -155.921875 93.40625 C-158.21624681 92.95772619 -159.96636312 92.13590528 -162 91 C-162.52172995 79.29006113 -161.50250215 69.18670984 -158 58 C-157.63777344 56.80503906 -157.27554688 55.61007813 -156.90234375 54.37890625 C-149.61258528 32.21309829 -133.84262858 12.32555916 -114 0 C-113.07703125 -0.59425781 -112.1540625 -1.18851563 -111.203125 -1.80078125 C-78.04305025 -22.28458404 -32.27657984 -21.99840059 0 0 Z " fill="#F8D872" transform="translate(185,39)"/>
<path d="M0 0 C0.73945862 0.00370605 1.47891724 0.00741211 2.24078369 0.01123047 C33.46878645 0.23314085 60.13462808 10.69790121 84.25 30.4375 C85.0234375 31.06785156 85.796875 31.69820312 86.59375 32.34765625 C91.30164243 36.3222039 95.37270169 40.65467555 99.25 45.4375 C99.94996094 46.29988281 100.64992187 47.16226563 101.37109375 48.05078125 C116.86396816 67.89347482 128.21026266 92.72341657 128.48828125 118.23046875 C128.50310799 119.33948296 128.50310799 119.33948296 128.51823425 120.47090149 C128.92558226 158.84127463 119.20686655 190.21963526 92.62890625 219.0625 C71.44239159 240.21422564 40.85505513 256.34445266 10.45703125 256.67578125 C9.34801704 256.69060799 9.34801704 256.69060799 8.21659851 256.70573425 C-31.29642848 257.12521292 -63.54230133 246.53832016 -92.6484375 218.59765625 C-113.03091787 198.30936479 -127.67558133 167.46814938 -127.98828125 138.609375 C-127.9980751 137.86716202 -128.00786896 137.12494904 -128.01795959 136.36024475 C-128.33436703 106.19757882 -128.33436703 106.19757882 -123.75 92.4375 C-123.30988268 91.00000403 -122.86977893 89.5625039 -122.4296875 88.125 C-115.72920655 67.12875791 -103.70266032 49.61198176 -87.75 34.4375 C-87.0796875 33.78394531 -86.409375 33.13039062 -85.71875 32.45703125 C-62.5392429 10.5945416 -31.56141494 -0.28600382 0 0 Z M-91.95507812 51.40136719 C-105.60552803 66.88623555 -113.48230283 86.47146674 -117.75 106.4375 C-117.92885742 107.20545898 -118.10771484 107.97341797 -118.29199219 108.76464844 C-119.16746805 113.87376876 -118.97560502 119.06387393 -118.99023438 124.23535156 C-118.99980922 126.2719214 -119.03080618 128.30742219 -119.0625 130.34375 C-119.13757363 139.75250205 -117.88700447 148.27251699 -115.75 157.4375 C-115.52715332 158.5090332 -115.30430664 159.58056641 -115.07470703 160.68457031 C-109.49850392 187.39538862 -88.71525803 213.51667303 -66.29296875 228.27734375 C-55.07552974 235.2242003 -43.59791346 241.15373772 -30.75 244.4375 C-29.74646484 244.69571533 -28.74292969 244.95393066 -27.70898438 245.2199707 C-18.93936583 247.29948562 -10.62224884 247.94731698 -1.625 247.875 C-0.95157562 247.87129395 -0.27815125 247.86758789 0.41567993 247.86376953 C33.85220667 247.6032367 63.2835333 234.88422656 86.85131836 211.13696289 C100.37277599 197.12643591 109.03743204 180.69376601 115.25 162.4375 C115.68699219 161.20644531 116.12398437 159.97539062 116.57421875 158.70703125 C125.42549133 128.73693286 118.82596405 95.72895387 104.31518555 68.85913086 C89.25236165 41.86927912 63.41835162 22.7758287 34.25 13.4375 C29.63922861 12.14630849 24.97441748 11.20810762 20.25 10.4375 C19.23679688 10.25574219 18.22359375 10.07398438 17.1796875 9.88671875 C-25.96178928 4.955039 -62.76287311 19.8426239 -91.95507812 51.40136719 Z " fill="#F3DA74" transform="translate(127.75,-0.4375)"/>
<path d="M0 0 C8.76202402 5.03224352 15.52632739 11.38605407 18.80859375 21.1015625 C21.03879251 30.95592911 18.84038847 40.58002608 13.625 49.078125 C8.37884371 56.38665232 1.04043978 61.15819522 -7.6875 63.328125 C-18.91536449 64.85680139 -27.04669662 62.30044034 -36.03515625 55.5703125 C-42.64150012 49.66782209 -46.32200433 42.16566883 -47.1640625 33.3515625 C-47.69899231 23.61583997 -45.94109729 16.43082441 -39.6328125 8.86328125 C-29.15566056 -2.32080655 -14.44482691 -6.74725468 0 0 Z " fill="#FAD972" transform="translate(143.6875,97.671875)"/>
<path d="M0 0 C2.5898495 2.09082972 4.44048706 4.14510558 6.2890625 6.91796875 C6.91330335 13.26441737 6.17821388 15.68155162 2.2890625 20.91796875 C0.65901902 22.78393958 -1.01029998 24.6161028 -2.7109375 26.41796875 C-5.86416926 29.78087694 -8.95659443 33.17230123 -11.921875 36.703125 C-12.45039062 37.3321875 -12.97890625 37.96125 -13.5234375 38.609375 C-14.54245708 39.82965095 -15.55577652 41.05471644 -16.5625 42.28515625 C-19.81506157 46.17214604 -22.79609612 49.30965403 -27.95703125 50.38671875 C-32.06082025 50.44523981 -34.8606459 50.27886208 -38.1484375 47.66796875 C-41.82244059 43.72513617 -43.51402639 40.84240032 -43.328125 35.234375 C-41.89262253 29.84669799 -37.42181672 25.9077501 -33.7109375 21.91796875 C-33.1864502 21.34675293 -32.66196289 20.77553711 -32.12158203 20.18701172 C-29.34512608 17.16343236 -26.54990302 14.15908663 -23.734375 11.171875 C-21.29913639 8.57664077 -18.98631457 5.90537653 -16.7109375 3.16796875 C-12.13360509 -2.07128183 -6.42889315 -4.06576119 0 0 Z " fill="#282725" transform="translate(82.7109375,56.08203125)"/>
<path d="M0 0 C2.96466719 1.33711816 5.3866114 3.18612395 7.9375 5.1875 C9.40602838 6.28545273 10.8747868 7.38309783 12.34375 8.48046875 C13.09914062 9.05587402 13.85453125 9.6312793 14.6328125 10.22412109 C17.06647702 12.04987148 19.53849563 13.80671873 22.03125 15.55078125 C22.85117432 16.12739502 23.67109863 16.70400879 24.51586914 17.2980957 C26.10345057 18.41383622 27.69369823 19.52579469 29.28686523 20.63354492 C30.3649646 21.40275269 30.3649646 21.40275269 31.46484375 22.1875 C32.100271 22.63480469 32.73569824 23.08210938 33.39038086 23.54296875 C36.40031308 26.26756688 36.96628722 28.77524814 37.5625 32.75 C37.47286032 37.52779485 34.97078763 40.06274114 31.82421875 43.43359375 C29.19288109 45.69305071 27.10378948 45.99085287 23.67578125 46.29296875 C19.34401666 45.94771652 17.64562355 44.89104728 14.1875 42.3125 C13.65125 41.9196582 13.115 41.52681641 12.5625 41.12207031 C11.36833286 40.24657137 10.1789493 39.36452172 8.99365234 38.47705078 C6.79449501 36.84774612 4.56677422 35.26371045 2.33203125 33.68359375 C0.72105775 32.53947975 -0.88962144 31.39495123 -2.5 30.25 C-3.26546143 29.70770752 -4.03092285 29.16541504 -4.81958008 28.60668945 C-14.77905326 21.44189348 -14.77905326 21.44189348 -17 17 C-17.64486862 12.99201911 -17.8673096 9.4437369 -15.73046875 5.88671875 C-11.00639144 0.33506585 -7.29444591 -1.06178466 0 0 Z " fill="#292825" transform="translate(124,34)"/>
<path d="M0 0 C3.17568542 1.65233922 5.37696485 3.75392971 7 7 C7.58946959 17.40482376 6.8750225 27.86764562 6.1875 38.25 C6.11748779 39.42812256 6.04747559 40.60624512 5.9753418 41.82006836 C5.89453369 42.93647705 5.81372559 44.05288574 5.73046875 45.203125 C5.66239014 46.19989258 5.59431152 47.19666016 5.52416992 48.22363281 C4.67613408 52.71541836 2.76870716 55.3228056 -0.625 58.3125 C-4.91245428 60.45622714 -8.29326978 61.00018017 -13 60 C-16.06465807 58.26974513 -18.40191031 56.19617938 -20 53 C-20.54884934 41.88260996 -19.94623882 30.72228555 -19.25 19.625 C-19.1883667 18.45461182 -19.1267334 17.28422363 -19.06323242 16.07836914 C-18.34073166 5.77804423 -18.34073166 5.77804423 -14 2 C-9.5424425 -0.971705 -5.22586818 -0.75294249 0 0 Z " fill="#282725" transform="translate(195,60)"/>
<path d="M0 0 C6.64429177 -0.18858962 12.85863223 0.18610915 19.375 1.5 C20.63908691 1.75088379 20.63908691 1.75088379 21.92871094 2.00683594 C31.73001631 4.12652675 40.85459165 7.95955271 50 12 C46.07239489 13.3092017 44.77463463 12.32881352 41 10.75 C30.16724147 6.45486464 19.9054462 4.41984808 8.35180664 3.08935547 C7.41844482 2.9760791 6.48508301 2.86280273 5.5234375 2.74609375 C4.67700684 2.64997803 3.83057617 2.5538623 2.95849609 2.45483398 C2.31219238 2.30473877 1.66588867 2.15464355 1 2 C0.67 1.34 0.34 0.68 0 0 Z " fill="#E6EB7E" transform="translate(135,0)"/>
<path d="M0 0 C-1.58667578 3.90285767 -4.13350481 6.33520982 -7.125 9.25 C-8.03507812 10.14203125 -8.94515625 11.0340625 -9.8828125 11.953125 C-10.58148438 12.62859375 -11.28015625 13.3040625 -12 14 C-12.66 13.67 -13.32 13.34 -14 13 C-12.04808712 10.82722848 -10.08902463 8.66177539 -8.125 6.5 C-7.56941406 5.87996094 -7.01382813 5.25992188 -6.44140625 4.62109375 C-5.90644531 4.03457031 -5.37148437 3.44804688 -4.8203125 2.84375 C-4.32805176 2.29912109 -3.83579102 1.75449219 -3.32861328 1.19335938 C-2 0 -2 0 0 0 Z " fill="#3F3726" transform="translate(71,56)"/>
<path d="M0 0 C4.17369956 1.39123319 5.22246104 4.28430926 7.25 7.9375 C7.62640625 8.58396484 8.0028125 9.23042969 8.390625 9.89648438 C9.33036797 11.56003673 10.1732092 13.27751916 11 15 C10.67 15.66 10.34 16.32 10 17 C8.51678092 14.73172355 7.03832301 12.46058097 5.5625 10.1875 C5.14162109 9.54490234 4.72074219 8.90230469 4.28710938 8.24023438 C2.52277296 5.51609896 1.0308261 3.09247829 0 0 Z " fill="#E2E67A" transform="translate(13,186)"/>
<path d="M0 0 C0.33 0.66 0.66 1.32 1 2 C0.14453125 3.91015625 0.14453125 3.91015625 -1.1875 6.0625 C-1.82751953 7.13177734 -1.82751953 7.13177734 -2.48046875 8.22265625 C-4.25241746 10.29524408 -5.34385824 10.63030147 -8 11 C-5.50127818 7.1626772 -2.9156164 3.54039134 0 0 Z " fill="#DFC56F" transform="translate(225,197)"/>
<path d="M0 0 C0.66 0 1.32 0 2 0 C0.33248852 3.94139078 -2.22710649 6.7892812 -5 10 C-5 6.65580848 -4.52480606 5.93159679 -2.625 3.3125 C-2.18414062 2.68988281 -1.74328125 2.06726563 -1.2890625 1.42578125 C-0.86367187 0.95527344 -0.43828125 0.48476562 0 0 Z " fill="#E0EC80" transform="translate(230,203)"/>
<path d="M0 0 C0.33 1.32 0.66 2.64 1 4 C-1.4375 6.75 -1.4375 6.75 -4 9 C-4.66 8.67 -5.32 8.34 -6 8 C-4.02 5.36 -2.04 2.72 0 0 Z " fill="#453E29" transform="translate(35,52)"/>
<path d="M0 0 C0 3 0 3 -2.5 5.6875 C-3.325 6.450625 -4.15 7.21375 -5 8 C-5.99 7.67 -6.98 7.34 -8 7 C-5.36 4.69 -2.72 2.38 0 0 Z " fill="#E9EA7E" transform="translate(45,29)"/>
<path d="M0 0 C0.33 0.99 0.66 1.98 1 3 C-0.65 4.65 -2.3 6.3 -4 8 C-4.66 7.67 -5.32 7.34 -6 7 C-4.02 4.69 -2.04 2.38 0 0 Z " fill="#DCC36E" transform="translate(75,87)"/>
</svg>
